<svg width="7" height="9" viewBox="0 0 7 9" fill="none" xmlns="http://www.w3.org/2000/svg">
<path d="M2.85564 6.17408L4.26745 5.75961C4.13793 5.64304 4.03431 5.42285 4.03431 5.21561C4.03431 4.12761 6.19735 3.98513 6.19735 2.09408C6.19735 0.889512 5.17412 0.0476074 3.50326 0.0476074C2.38935 0.0476074 1.35316 0.500941 0.666687 1.30399L1.71583 2.48266C2.11735 2.00342 2.66135 1.67961 3.30897 1.67961C4.02135 1.67961 4.31926 2.01637 4.31926 2.41789C4.31926 3.31161 2.42821 3.49294 2.42821 5.03427C2.42821 5.48761 2.58364 5.87618 2.85564 6.17408ZM3.47735 8.95885C4.04726 8.95885 4.5265 8.47961 4.5265 7.9097C4.5265 7.3398 4.04726 6.86056 3.47735 6.86056C2.90745 6.86056 2.42821 7.3398 2.42821 7.9097C2.42821 8.47961 2.90745 8.95885 3.47735 8.95885Z" fill="white"/>
</svg>
