<svg width="17" height="17" viewBox="0 0 17 17" fill="none" xmlns="http://www.w3.org/2000/svg">
<circle cx="8.5" cy="8.5" r="8.5" fill="#D7D9DF"/>
<path d="M7.85564 10.1741L9.26745 9.75961C9.13793 9.64304 9.03431 9.42285 9.03431 9.21561C9.03431 8.12761 11.1974 7.98513 11.1974 6.09408C11.1974 4.88951 10.1741 4.04761 8.50326 4.04761C7.38935 4.04761 6.35316 4.50094 5.66669 5.30399L6.71583 6.48266C7.11735 6.00342 7.66135 5.67961 8.30897 5.67961C9.02135 5.67961 9.31926 6.01637 9.31926 6.41789C9.31926 7.31161 7.42821 7.49294 7.42821 9.03427C7.42821 9.48761 7.58364 9.87618 7.85564 10.1741ZM8.47735 12.9588C9.04726 12.9588 9.5265 12.4796 9.5265 11.9097C9.5265 11.3398 9.04726 10.8606 8.47735 10.8606C7.90745 10.8606 7.42821 11.3398 7.42821 11.9097C7.42821 12.4796 7.90745 12.9588 8.47735 12.9588Z" fill="white"/>
</svg>
